<?xml version="1.0" encoding="utf-8"?>
<!-- Generator: Adobe Illustrator 17.1.0, SVG Export Plug-In . SVG Version: 6.00 Build 0)  -->
<!DOCTYPE svg PUBLIC "-//W3C//DTD SVG 1.1//EN" "http://www.w3.org/Graphics/SVG/1.1/DTD/svg11.dtd">
<svg version="1.1" id="Layer_1" xmlns="http://www.w3.org/2000/svg" xmlns:xlink="http://www.w3.org/1999/xlink" x="0px" y="0px"
	 width="78px" height="32px" viewBox="0 272.1 612 247.9" enable-background="new 0 272.1 612 247.9" xml:space="preserve">
<g>
	<path fill="#B23840" d="M0,272.1v247.9h612V272.1H0z"/>
	<g>
		<path fill="#FFFFFF" d="M294.4,423.9c-3.9,3.9-9.3,5.4-16.3,5.4h-28.7v-73.6h27.9c6.2,0,11.6,1.5,15.5,5.4
			c3.9,3.9,6.2,8.5,6.2,13.9c0,3.9-0.8,7-3.1,10.1c-2.3,3.1-4.6,4.6-7.7,6.2c3.9,1.5,6.2,3.1,8.5,6.2c2.3,3.1,3.1,7,3.1,10.8
			C300.6,415.4,298.3,420.8,294.4,423.9z M287.4,365.8c-2.3-2.3-6.2-3.1-10.8-3.1h-19.4v25.6h19.4c4.6,0,7.7-0.8,10.8-3.1
			c2.3-2.3,3.9-5.4,3.9-9.3C291.3,371.2,289.7,368.1,287.4,365.8z M289,399.1c-2.3-2.3-6.2-3.9-10.8-3.9H258v27.1h20.1
			c4.6,0,7.7-1.5,10.8-3.9c2.3-2.3,3.9-5.4,3.9-10.1C292.8,404.5,291.3,401.4,289,399.1z"/>
		<path fill="#FFFFFF" d="M323.8,429.3v-73.6h7.7v66.6h37.2v7H323.8z"/>
		<path fill="#FFFFFF" d="M436.9,403.7c0,2.3,0,4.6-0.8,7c-0.8,2.3-0.8,4.6-2.3,6.2c-0.8,1.5-2.3,3.9-3.9,5.4
			c-5.4,5.4-11.6,7.7-18.6,7.7c-7.7,0-13.9-2.3-18.6-7.7c-1.5-1.5-3.1-3.9-3.9-5.4c-0.8-1.5-1.5-3.9-2.3-6.2c-0.8-2.3-0.8-4.6-0.8-7
			s0-6.2,0-10.8c0-4.6,0-8.5,0-10.8c0-2.3,0-4.6,0.8-7c0.8-2.3,0.8-3.9,2.3-6.2c0.8-1.5,2.3-3.9,3.9-5.4c5.4-5.4,11.6-7.7,18.6-7.7
			c7.7,0,13.9,2.3,18.6,7.7c1.5,1.5,3.1,3.9,3.9,5.4c0.8,1.5,1.5,3.9,2.3,6.2c0.8,2.3,0.8,4.6,0.8,7c0,2.3,0,6.2,0,10.8
			S436.9,401.4,436.9,403.7z M429.2,382.8c0-2.3,0-4.6-0.8-6.2c0-1.5-0.8-3.1-1.5-4.6s-1.5-2.3-3.1-3.9c-1.5-1.5-3.9-3.1-5.4-3.9
			c-2.3-0.8-4.6-1.5-7-1.5c-2.3,0-4.6,0.8-7,1.5c-2.3,0.8-3.9,2.3-5.4,3.9c-1.5,1.5-2.3,2.3-3.1,3.9c-0.8,0.8-0.8,2.3-1.5,3.9
			c0,1.5-0.8,3.9-0.8,6.2c0,2.3,0,6.2,0,10.1c0,3.9,0,7.7,0,10.1s0,4.6,0.8,6.2c0,1.5,0.8,3.1,1.5,4.6c0.8,1.5,1.5,2.3,3.1,3.9
			s3.9,3.1,5.4,3.9c2.3,0.8,4.6,1.5,7,1.5c2.3,0,4.6-0.8,7-1.5c2.3-0.8,3.9-2.3,5.4-3.9s2.3-2.3,3.1-3.9c0.8-1.5,1.5-3.1,1.5-4.6
			c0-1.5,0.8-3.9,0.8-6.2s0-6.2,0-10.1C429.2,388.3,429.2,385.2,429.2,382.8z"/>
		<path fill="#FFFFFF" d="M509,413c-0.8,3.1-2.3,5.4-4.6,7.7c-2.3,2.3-5.4,4.6-8.5,6.2c-3.1,1.5-7,2.3-10.8,2.3s-7-0.8-10.1-2.3
			c-3.1-1.5-6.2-3.1-8.5-5.4c-1.5-1.5-3.1-3.9-3.9-5.4c-0.8-1.5-1.5-3.9-2.3-6.2c-0.8-2.3-0.8-4.6-0.8-7s0-6.2,0-10.8s0-8.5,0-10.8
			s0-4.6,0.8-7c0.8-2.3,0.8-3.9,2.3-6.2c0.8-1.5,2.3-3.9,3.9-5.4c5.4-5.4,11.6-7.7,18.6-7.7c4.6,0,8.5,0.8,11.6,2.3
			c3.1,1.5,7,3.9,10.1,7.7l-5.4,5.4c-3.1-3.1-5.4-4.6-7.7-6.2c-2.3-1.5-5.4-2.3-8.5-2.3c-2.3,0-4.6,0.8-7,1.5
			c-2.3,0.8-3.9,2.3-5.4,3.9s-2.3,2.3-3.1,3.9c-0.8,1.5-1.5,3.1-1.5,4.6s-0.8,3.9-0.8,6.2s0,6.2,0,10.1s0,7.7,0,10.1
			c0,2.3,0,4.6,0.8,6.2c0,1.5,0.8,3.1,1.5,4.6s1.5,2.3,3.1,3.9s3.9,3.1,5.4,3.9c2.3,0.8,4.6,1.5,7,1.5c3.1,0,5.4-0.8,7.7-1.5
			c2.3-0.8,4.6-2.3,6.2-4.6c1.5-1.5,2.3-3.9,3.1-6.2c0.8-2.3,0.8-4.6,0.8-7.7v-5.4H485v-7h25.6v11.6
			C510.5,406.8,509.7,410.7,509,413z"/>
	</g>
	<path fill="#FFFFFF" d="M137.1,451c-20.9-14.7-34.1-42.6-35.6-68.2c-0.8-6.2,0-9.3,2.3,0c6.2,23.2,20.9,52.7,42.6,65.1
		c13.2,7.7,21.7-2.3,24-16.3c4.6-26.3-7.7-55-20.1-73.6c-12.4-17-18.6-17-20.9-7.7c-3.9,13.9-3.1,31,2.3,46.5
		c3.9,11.6,10.1,23.2,17,31c5.4,6.2,6.2,2.3,5.4-3.1c-0.8-13.9-3.9-31-10.1-42.6c-2.3-3.9-2.3-5.4-3.1,0c0,10.8,1.5,20.1,5.4,30.2
		c2.3,5.4,0,3.1-2.3,0c-7-10.1-11.6-25.6-10.1-38c1.5-11.6,5.4-10.8,12.4-2.3c10.8,13.2,19.4,39.5,16.3,56.6
		c-3.1,19.4-15.5,16.3-25.6,3.9c-14.7-17-24.8-48-20.1-77.5c3.9-26.3,29.4-24,41.1-9.3c16.3,20.9,28.7,49.6,26.3,79
		C180.5,447.1,164.2,469.6,137.1,451"/>
</g>
<rect id="_x3C_Slice_x3E_" y="273" fill="none" width="612" height="246"/>
</svg>
