<?xml version="1.0" encoding="utf-8"?>
<!-- Generator: Adobe Illustrator 17.1.0, SVG Export Plug-In . SVG Version: 6.00 Build 0)  -->
<!DOCTYPE svg PUBLIC "-//W3C//DTD SVG 1.1//EN" "http://www.w3.org/Graphics/SVG/1.1/DTD/svg11.dtd">
<svg version="1.1" id="Layer_1" xmlns="http://www.w3.org/2000/svg" xmlns:xlink="http://www.w3.org/1999/xlink" x="0px" y="0px"
	 width="32px" height="32px" viewBox="0 0 32 32" enable-background="new 0 0 32 32" xml:space="preserve">
<g>
	<rect fill="#FFFFFF" width="32" height="32"/>
	<path fill="#445A90" d="M0,0v32h32V0H0z M19.4,16h-2.2c0,3.6,0,8,0,8h-3.3c0,0,0-4.4,0-8h-1.6v-2.8h1.6v-1.8c0-1.3,0.6-3.4,3.4-3.4
		l2.5,0v2.7c0,0-1.5,0-1.8,0c-0.3,0-0.7,0.1-0.7,0.8v1.7h2.5L19.4,16z"/>
</g>
<rect id="_x3C_Slice_x3E_" fill="none" width="32" height="32"/>
<rect id="_x3C_Slice_x3E__1_" x="46" fill="none" width="32" height="32"/>
<rect id="_x3C_Slice_x3E__2_" x="94" fill="none" width="32" height="32"/>
</svg>
