<?xml version="1.0" encoding="utf-8"?>
<!-- Generator: Adobe Illustrator 17.1.0, SVG Export Plug-In . SVG Version: 6.00 Build 0)  -->
<!DOCTYPE svg PUBLIC "-//W3C//DTD SVG 1.1//EN" "http://www.w3.org/Graphics/SVG/1.1/DTD/svg11.dtd">
<svg version="1.1" id="Layer_1" xmlns="http://www.w3.org/2000/svg" xmlns:xlink="http://www.w3.org/1999/xlink" x="0px" y="0px"
	 width="32px" height="32px" viewBox="0 0 32 32" enable-background="new 0 0 32 32" xml:space="preserve">
<g>
	<g>
		<path fill="#0A6C9B" d="M17,14.8L17,14.8C17,14.8,16.9,14.8,17,14.8L17,14.8z"/>
		<path fill="#576177" d="M0,0v32h32V0H0z"/>
	</g>
	<path fill="#FFFFFF" d="M16.7,8v3.7h3.7v2.9h-3.7v4.1c0,0.9,0,1.5,0.1,1.7c0.1,0.3,0.3,0.5,0.6,0.7c0.4,0.2,0.8,0.3,1.2,0.3
		c0.8,0,1.6-0.3,2.4-0.8v2.5c-0.7,0.3-1.3,0.5-1.9,0.7C18.6,23.9,18,24,17.4,24c-0.7,0-1.2-0.1-1.7-0.3c-0.6-0.2-1-0.4-1.4-0.8
		c-0.4-0.3-0.7-0.7-0.8-1.1c-0.2-0.4-0.2-0.9-0.2-1.7v-5.6H11v-2.3c0.6-0.2,1.4-0.5,1.8-0.9c0.4-0.4,0.8-0.8,1.1-1.4
		c0.3-0.5,0.5-1.2,0.6-2H16.7z"/>
</g>
<rect id="_x3C_Slice_x3E__2_" fill="none" width="32" height="32"/>
</svg>
