<?xml version="1.0" encoding="utf-8"?>
<!-- Generator: Adobe Illustrator 17.1.0, SVG Export Plug-In . SVG Version: 6.00 Build 0)  -->
<!DOCTYPE svg PUBLIC "-//W3C//DTD SVG 1.1//EN" "http://www.w3.org/Graphics/SVG/1.1/DTD/svg11.dtd">
<svg version="1.1" id="Layer_1" xmlns="http://www.w3.org/2000/svg" xmlns:xlink="http://www.w3.org/1999/xlink" x="0px" y="0px"
	 width="32px" height="32px" viewBox="0 0 32 32" enable-background="new 0 0 32 32" xml:space="preserve">
<g>
	<g>
		<path fill="#494949" d="M0,0v32h32V0H0z"/>
	</g>
	<g>
		<path fill="#FFFFFF" d="M12.4,13c0.8-1,2.1-1.7,3.6-1.7c1.4,0,2.7,0.7,3.6,1.7H24V8H8v5H12.4z M20,9h3v2h-3V9z"/>
		<path fill="#FFFFFF" d="M20.5,14.8c0.1,0.3,0.1,0.7,0.1,1.1c0,2.5-2.1,4.6-4.6,4.6c-2.5,0-4.6-2.1-4.6-4.6c0-0.4,0.1-0.7,0.1-1.1
			H8V24h16v-9.2H20.5z"/>
		<path fill="#FFFFFF" d="M13.4,15.9c0,1.4,1.2,2.6,2.6,2.6c1.4,0,2.6-1.2,2.6-2.6c0-1.4-1.2-2.6-2.6-2.6
			C14.6,13.3,13.4,14.5,13.4,15.9z"/>
	</g>
</g>
</svg>
