<?xml version="1.0" encoding="utf-8"?>
<!-- Generator: Adobe Illustrator 17.1.0, SVG Export Plug-In . SVG Version: 6.00 Build 0)  -->
<!DOCTYPE svg PUBLIC "-//W3C//DTD SVG 1.1//EN" "http://www.w3.org/Graphics/SVG/1.1/DTD/svg11.dtd">
<svg version="1.1" id="Layer_1" xmlns="http://www.w3.org/2000/svg" xmlns:xlink="http://www.w3.org/1999/xlink" x="0px" y="0px"
	 width="32px" height="32px" viewBox="0 0 32 32" enable-background="new 0 0 32 32" xml:space="preserve">
<g>
	<rect fill="#FFFFFF" width="32" height="32"/>
	<g>
		<path fill="#888681" d="M13.3,18c-1.9,0-3.5,1.2-3.5,2.6c0,1.4,1.4,2.6,3.3,2.6c2.7,0,3.6-1.1,3.6-2.6c0-0.2,0-0.3-0.1-0.5
			c-0.2-0.8-1-1.3-2.1-2C14.1,18,13.7,18,13.3,18z"/>
		<path fill="#878683" d="M0,0v32h32V0H0z M17.2,11.8c0,1-0.6,1.9-1.4,2.5c-0.8,0.6-0.9,0.9-0.9,1.4c0,0.5,1,1.1,1.4,1.5
			c1.5,1.1,1.8,1.9,1.8,3.3c0,1.8-1.9,3.6-5,3.6C10.3,24,8,22.9,8,21.1c0-1.8,1.9-3.7,4.7-3.7c0.3,0,0.6,0,0.9,0
			c-0.4-0.4-0.7-0.7-0.7-1.2c0-0.3,0.1-0.6,0.3-0.9c-0.1,0-0.3,0-0.5,0c-2.3,0-3.6-1.6-3.6-3.6c0-1.9,2-3.7,4.4-3.7
			c1.2,0,4.7,0,4.7,0l-1.1,1.1h-1.2C16.8,9.6,17.2,10.6,17.2,11.8z M24,11.5h-2.2v2.2h-1.1v-2.2h-2.2v-1.1h2.2V8.2h1.1v2.2H24V11.5z
			"/>
		<path fill="#888681" d="M12.8,8.8c-1.3,0-2.1,1.2-1.9,2.9c0.2,1.7,1.4,2.8,2.7,2.9c1.3,0,2-1,1.8-2.7C15.1,10.2,14,8.8,12.8,8.8z"
			/>
	</g>
</g>
</svg>
