<?xml version="1.0" encoding="utf-8"?>
<!-- Generator: Adobe Illustrator 17.1.0, SVG Export Plug-In . SVG Version: 6.00 Build 0)  -->
<!DOCTYPE svg PUBLIC "-//W3C//DTD SVG 1.1//EN" "http://www.w3.org/Graphics/SVG/1.1/DTD/svg11.dtd">
<svg version="1.1" id="Layer_1" xmlns="http://www.w3.org/2000/svg" xmlns:xlink="http://www.w3.org/1999/xlink" x="0px" y="0px"
	 width="32px" height="32px" viewBox="0 0 32 32" enable-background="new 0 0 32 32" xml:space="preserve">
<g>
	<path fill="#D64B4D" d="M0,0v32h32V0H0z"/>
	<g>
		<path fill="#FFFFFF" d="M12.8,11.6v2.3h-0.9v-2.3L10.8,8h1l0.6,2.3L13,8h1L12.8,11.6z"/>
		<path fill="#FFFFFF" d="M16.8,13.5c-0.3,0.4-0.7,0.5-1.2,0.5c-0.5,0-0.9-0.1-1.2-0.5c-0.3-0.4-0.4-1.2-0.4-2c0-0.8,0-1.6,0.4-2
			C14.7,9.1,15.1,9,15.6,9c0.5,0,0.9,0.1,1.2,0.5c0.3,0.4,0.4,1.2,0.4,2C17.2,12.3,17.1,13.1,16.8,13.5z M16,10.1
			c-0.1-0.1-0.2-0.2-0.4-0.2c-0.2,0-0.3,0.1-0.4,0.2C15,10.3,15,10.8,15,11.5c0,0.7,0,1.2,0.1,1.4c0.1,0.1,0.2,0.2,0.4,0.2
			c0.2,0,0.3-0.1,0.4-0.2c0.1-0.2,0.1-0.7,0.1-1.4C16.1,10.8,16.1,10.3,16,10.1z"/>
		<path fill="#FFFFFF" d="M20.2,13.9v-0.4c-0.1,0.1-0.2,0.2-0.3,0.3c-0.1,0.1-0.3,0.1-0.4,0.1c-0.4,0-0.6-0.1-0.8-0.4
			c-0.2-0.2-0.3-0.5-0.3-1V9.1h0.9v3.5c0,0.4,0.2,0.6,0.4,0.6c0.2,0,0.4-0.2,0.4-0.6V9.1H21v4.8H20.2z"/>
	</g>
	<rect x="8" y="16" fill="#FFFFFF" width="16" height="8"/>
	<g>
		<path fill="#EE3537" d="M11.6,17.8v5.1h-0.9v-5.1h-1V17h2.9v0.8H11.6z"/>
		<path fill="#EE3537" d="M14.6,22.9v-0.3c-0.1,0.1-0.2,0.2-0.3,0.3C14.2,22.9,14,23,13.9,23c-0.4,0-0.6-0.1-0.8-0.3
			c-0.2-0.2-0.3-0.4-0.3-1v-3.2h0.9v3.2c0,0.3,0.2,0.5,0.4,0.5c0.2,0,0.4-0.2,0.4-0.5v-3.2h0.9v4.4H14.6z"/>
		<path fill="#EE3537" d="M18.7,22.6c-0.2,0.2-0.5,0.3-0.8,0.3c-0.2,0-0.3,0-0.4-0.1c-0.1,0-0.2-0.2-0.3-0.3v0.3h-0.8V17h0.9v1.8
			c0.1-0.1,0.2-0.2,0.3-0.2c0.1-0.1,0.3-0.1,0.4-0.1c0.3,0,0.6,0.1,0.8,0.3c0.3,0.4,0.3,1,0.3,1.9C19,21.6,19,22.3,18.7,22.6z
			 M18,19.4c-0.1-0.1-0.2-0.2-0.3-0.2c-0.1,0-0.2,0-0.3,0.1c-0.1,0.1-0.1,0.2-0.1,0.4v1.9c0,0.2,0,0.3,0.1,0.4
			c0.1,0.1,0.2,0.1,0.3,0.1c0.1,0,0.3-0.1,0.3-0.2c0.1-0.2,0.1-0.6,0.1-1.3C18.1,20.1,18.1,19.6,18,19.4z"/>
		<path fill="#EE3537" d="M20.5,21c0,0.5,0,0.9,0.1,1c0.1,0.1,0.2,0.2,0.3,0.2c0.1,0,0.2-0.1,0.3-0.2c0.1-0.1,0.1-0.3,0.1-0.4h0.9
			c0,0.4-0.1,0.7-0.4,1C21.7,22.9,21.3,23,21,23c-0.4,0-0.7-0.1-1-0.4c-0.4-0.4-0.4-1.1-0.4-1.9c0-0.8,0-1.5,0.4-1.9
			c0.3-0.3,0.6-0.3,0.9-0.3c0.4,0,0.7,0.1,0.9,0.3c0.4,0.5,0.4,1.3,0.4,2.2H20.5z M21.3,19.4c-0.1-0.1-0.2-0.2-0.3-0.2
			c-0.2,0-0.3,0.1-0.3,0.2c-0.1,0.1-0.1,0.5-0.1,0.9h0.9C21.4,19.9,21.4,19.5,21.3,19.4z"/>
	</g>
</g>
</svg>
